<svg xmlns="http://www.w3.org/2000/svg" viewBox="0 0 1000 1000" xml:space="preserve"><path d="M478.75 15.36c-25.27 16.08-40.2 52.83-31.58 78.09 1.72 5.17 9.19 19.33 16.46 31.39 17.23 28.52 21.44 40.39 21.63 60.29 0 46.7-33.69 83.45-76.37 83.65-29.48 0-49.38-17.23-52.06-44.79l-.96-11.29-5.55 5.36c-12.44 11.68-20.29 37.32-17.8 58 1.91 17.04 6.13 30.05 18.38 55.89 17.42 36.94 19.14 43.26 20.29 69.48 1.53 33.3-4.59 53.59-20.67 69.67-8.61 8.8-16.27 12.06-29.86 13.21-10.34.77-13.4.19-22.39-4.21-12.25-5.93-22.01-16.65-29.48-31.77l-5.17-10.53-2.49 12.44c-1.72 8.04-2.68 26.61-2.87 52.64 0 43.83 2.87 66.8 13.21 102.98 21.05 73.5 66.04 122.12 135.32 146.62 19.91 6.89 23.54 7.27 15.7 1.53-35.41-26.03-60.68-72.93-66.99-124.61l-1.34-11.29 6.51 5.36c20.29 17.23 45.17 16.46 63.16-1.91 15.12-15.31 16.65-37.13 4.79-74.65-3.64-11.67-7.85-26.41-9-32.92-3.06-15.12-1.72-49 2.3-58l2.87-6.7 3.25 11.1c1.91 6.7 5.74 13.97 9.76 18.18 5.74 6.32 7.46 7.08 15.89 7.08 16.84 0 24.5-12.06 29.86-46.89 6.13-39.24 15.89-61.82 32.54-74.84l4.21-3.45-3.64 10.91c-4.78 13.97-5.17 49.76-.57 72.16 9.19 43.83 24.31 71.78 40.39 74.84 14.17 2.68 24.69-5.17 34.84-25.46l5.36-11.1.57 15.31c.77 20.29-2.1 34.07-12.25 58.57-9.76 24.12-13.02 41.34-11.1 61.06 1.53 17.99 5.17 27.18 13.4 34.26 15.7 13.97 37.13 8.04 52.26-14.36l6.32-9.38-1.15 20.1c-1.34 23.73-4.79 37.9-13.78 57.04-7.85 16.46-25.46 35.98-41.73 46.7-14.16 9.19-11.29 9.19 11.1.38 67.95-26.99 115.42-83.07 135.51-159.63 5.17-19.33 5.93-25.27 5.93-49.77.19-30.43-1.72-40.77-12.25-66.23-5.74-13.59-9.38-16.65-9.38-7.66 0 7.46-9.57 23.73-18.57 31.77-15.12 13.21-38.28 16.84-54.17 8.61-3.06-1.53-8.04-6.51-11.1-10.91-4.4-6.7-5.17-9.95-5.17-21.44 0-17.23 4.98-27.56 24.88-52.83 24.12-30.43 31.58-48.81 31.58-77.52-.19-30.05-9.19-56.85-25.46-74.65l-8.61-9.57.96 15.7c1.34 19.14-1.92 29.29-12.83 40.58-12.06 12.25-27.37 14.36-44.41 5.74-8.23-4.19-13.78-10.89-17.03-20.27-3.25-9.95-.96-34.26 4.98-55.12 5.93-20.67 8.23-52.25 4.98-67.95-5.55-26.6-22.01-46.7-61.06-74.27-13.4-9.57-27.56-20.48-31.58-24.31-15.31-14.74-19.52-33.69-13.21-58 1.91-7.47 3.45-13.78 3.25-13.78s-4.02 2.5-8.81 5.37z"/><path d="M209.83 752.47c-8.23 4.98-11.68 10.33-16.27 25.07-4.79 15.7-3.64 25.46 4.21 35.03 6.51 8.04.96 5.93 103.74 36.75 34.45 10.34 62.02 19.52 61.25 20.29-.96.58-35.6 11.29-77.14 23.74s-78.29 24.12-81.73 26.22c-6.51 3.83-13.97 17.03-13.97 24.69 0 6.13 6.7 27.37 10.72 33.12 3.45 5.55 17.04 12.63 23.93 12.63 2.49 0 65.46-18.18 140.11-40.58L500 908.84l135.52 40.58C709.98 971.81 772.95 990 775.44 990c7.08 0 20.48-7.08 24.12-12.83 3.64-5.36 10.53-27.94 10.53-33.88 0-6.89-7.85-20.1-13.97-23.73-3.44-2.11-40.2-13.78-81.73-26.22s-76.37-23.16-77.14-23.93c-.77-.77 34.07-11.87 77.52-24.88 87.28-26.22 88.43-26.8 93.6-43.64 1.91-6.7 1.72-9.76-.96-20.1-6.12-22.58-15.5-31.96-31.77-31.96-5.74 0-54.55 13.78-142.02 40.2l-133.6 40-133.41-40c-87.66-26.41-136.47-40.2-142.21-40.2-5.19 0-11.13 1.53-14.57 3.64z"/></svg>